<?xml version="1.0" standalone="no"?>
<!DOCTYPE svg PUBLIC "-//W3C//DTD SVG 20010904//EN"
 "http://www.w3.org/TR/2001/REC-SVG-20010904/DTD/svg10.dtd">
<svg version="1.0" xmlns="http://www.w3.org/2000/svg"
 width="260.000000pt" height="260.000000pt" viewBox="0 0 260.000000 260.000000"
 preserveAspectRatio="xMidYMid meet">
<metadata>
Created by potrace 1.11, written by Peter Selinger 2001-2013
</metadata>
<g transform="translate(0.000000,260.000000) scale(0.100000,-0.100000)"
fill="#000000" stroke="none">
<path d="M1115 2212 c-98 -163 -206 -342 -240 -397 -67 -109 -263 -435 -286
-475 -8 -14 -18 -28 -23 -31 -9 -7 28 -33 114 -81 25 -14 90 -52 145 -85 110
-67 158 -95 255 -150 36 -20 67 -41 68 -45 2 -4 8 -8 14 -8 6 0 37 -16 70 -36
32 -20 65 -33 74 -30 13 5 207 119 544 319 74 44 145 86 157 92 25 13 52 -37
-223 416 -62 102 -121 200 -131 217 -33 57 -287 476 -323 534 l-36 57 -179
-297z"/>
<path d="M616 1083 c27 -38 53 -73 59 -80 5 -7 147 -206 315 -443 268 -379
306 -428 317 -413 7 10 19 27 27 38 17 23 230 323 246 345 6 8 107 150 224
315 118 165 213 302 210 304 -2 2 -16 -5 -31 -15 -15 -10 -37 -24 -48 -29 -11
-6 -146 -86 -300 -177 -372 -219 -341 -205 -376 -179 -15 12 -30 21 -32 21 -3
0 -128 73 -278 161 -151 89 -290 171 -309 181 -19 11 -39 24 -44 29 -6 5 -14
9 -19 9 -5 0 13 -30 39 -67z"/>
</g>
</svg>
